<svg xmlns="http://www.w3.org/2000/svg" width="312.385" height="964.015" viewBox="4819.678 1238.233 312.385 964.015"><path fill-rule="evenodd" d="M4948.18 2077.715c4.27-.348 6.14-2.621 8.3-4.227 25.93-19.191 52.04-38.129 77.598-57.793 17.461-13.425 37.192-21.687 57.863-28.246 2.399-.762 4.918-1.246 7.43-1.62 10.73-1.567 20.43.456 27.348 9.464 6.96 9.062 6.71 19.191 1.62 28.762-9.237 17.379-20.46 33.777-36.3 45.558-46.437 34.547-92.46 69.754-141.789 100.219-19.07 11.781-39.5 20.875-60.91 27.652-10.98 3.48-22.16 5.606-33.75 4.446-23.121-2.344-37.621-19.649-35.75-42.778 7.789-96.175 16.738-192.265 19.988-288.765.492-14.434 1.703-28.914 5.613-42.977 1.649-5.922 3.829-11.594 7.797-16.375 7.09-8.531 16.121-8.644 23.313-.21 5.539 6.503 8.629 14.32 11.11 22.366 6.46 21.04 8.28 42.829 10.05 64.598 2.7 33 1.539 65.984-.602 98.957-.14 2.16-1.16 4.445.391 6.555 2.14.054 2.352-1.844 2.922-3.043 46.098-97.094 81.738-197.41 96.039-304.63 16.789-125.898 9.098-250.308-20.25-373.628a1022 1022 0 0 1-9.262-43.191c-1.59-8.239-2.11-16.68.422-24.918 4.54-14.75 17.25-19.77 30.59-12.082 8.11 4.68 14.027 11.671 19.289 19.203 11.41 16.347 19.648 34.36 26.96 52.808 20.411 51.52 28.77 105.559 34.61 160.309 12.14 114.2 3.86 226.855-25.53 337.703-21.212 79.969-51.009 156.938-86.52 231.652-5.41 11.403-12.032 22.23-18.59 34.23"/></svg>